<?xml version="1.0" encoding="UTF-8"?>
<!DOCTYPE svg PUBLIC "-//W3C//DTD SVG 1.1//EN" "http://www.w3.org/Graphics/SVG/1.1/DTD/svg11.dtd">
<svg xmlns="http://www.w3.org/2000/svg" version="1.1" width="1024px" height="1024px" style="shape-rendering:geometricPrecision; text-rendering:geometricPrecision; image-rendering:optimizeQuality; fill-rule:evenodd; clip-rule:evenodd" xmlns:xlink="http://www.w3.org/1999/xlink">
<g><path style="opacity:1" fill="#fefefe" d="M 479.5,-0.5 C 500.833,-0.5 522.167,-0.5 543.5,-0.5C 709.405,13.838 840.238,88.5047 936,223.5C 987.785,301.019 1016.95,386.352 1023.5,479.5C 1023.5,500.833 1023.5,522.167 1023.5,543.5C 1010.96,692.75 947.631,815.25 833.5,911C 786.647,948.439 734.647,977.105 677.5,997C 667.409,999.706 657.742,998.706 648.5,994C 644.279,990.395 641.446,985.895 640,980.5C 639.667,925.833 639.333,871.167 639,816.5C 637.429,785.913 626.262,759.579 605.5,737.5C 637.918,733.646 669.584,726.479 700.5,716C 775.787,687.017 819.954,632.517 833,552.5C 838.891,518.633 839.891,484.633 836,450.5C 831.595,423.615 822.262,398.615 808,375.5C 800.993,365.667 793.826,356.001 786.5,346.5C 798.447,310.872 799.614,274.872 790,238.5C 787.257,229.44 784.424,220.44 781.5,211.5C 772.484,210.143 763.484,210.31 754.5,212C 727.606,217.521 702.272,227.188 678.5,241C 665.666,248.583 652.999,256.416 640.5,264.5C 575.731,246.647 510.065,242.481 443.5,252C 423.72,254.889 404.22,259.056 385,264.5C 359.549,247.021 332.382,232.521 303.5,221C 287.883,214.943 271.716,211.443 255,210.5C 251.158,210.407 247.491,211.074 244,212.5C 229.218,249.088 225.551,286.755 233,325.5C 234.667,332.668 236.834,339.668 239.5,346.5C 204.427,386.527 186.76,433.36 186.5,487C 186.506,523.376 192.006,558.876 203,593.5C 222.223,648.725 258.723,687.891 312.5,711C 346.931,724.691 382.598,733.524 419.5,737.5C 401.054,756.785 390.054,779.785 386.5,806.5C 354.511,821.554 321.844,823.387 288.5,812C 272.818,805.077 259.652,794.911 249,781.5C 238.022,762.749 224.522,745.916 208.5,731C 194.417,718.963 178.084,712.463 159.5,711.5C 152.122,711.385 145.122,712.885 138.5,716C 137.128,717.242 136.128,718.742 135.5,720.5C 137.464,726.256 140.797,731.09 145.5,735C 158.104,741.929 169.271,750.762 179,761.5C 186.057,770.892 192.724,780.558 199,790.5C 207.865,807.447 216.531,824.447 225,841.5C 239.176,859.322 257.343,871.155 279.5,877C 301.546,882.182 323.879,883.849 346.5,882C 359.215,880.826 371.882,879.326 384.5,877.5C 384.708,910.838 384.875,944.171 385,977.5C 382.833,989 376,995.833 364.5,998C 360.167,998.667 355.833,998.667 351.5,998C 215.279,951.441 114.779,863.941 50,735.5C 21.1064,674.92 4.27304,611.253 -0.5,544.5C -0.5,522.833 -0.5,501.167 -0.5,479.5C 13.838,313.595 88.5047,182.762 223.5,87C 300.984,35.2266 386.318,6.0599 479.5,-0.5 Z"/></g>
</svg>
