<?xml version="1.0" encoding="UTF-8"?>
<svg version="1.1" xmlns="http://www.w3.org/2000/svg" width="1200" height="500">
<path d="M0 0 C2.44865479 0.04543945 2.44865479 0.04543945 4.94677734 0.09179688 C11.08590772 0.20527834 17.22507629 0.31656916 23.36425781 0.42724609 C26.00587485 0.47498374 28.64746992 0.52365245 31.2890625 0.57275391 C54.59747563 1.00537218 77.8184538 0.99801741 101.125 0.5 C103.45181939 0.45165303 105.7786423 0.40347485 108.10546875 0.35546875 C113.73702147 0.23892032 119.36852204 0.12010412 125 0 C125 4.95 125 9.9 125 15 C122.89625 15.2475 120.7925 15.495 118.625 15.75 C111.10112713 16.83136634 104.64689793 18.54046419 98.3125 22.8125 C96.73936233 25.43439611 96.89464041 27.0242165 97.39755249 29.98812866 C98.59548794 33.98862988 101.08236495 37.22415057 103.45703125 40.61328125 C104.3075708 41.86060028 104.3075708 41.86060028 105.17529297 43.13311768 C106.40255427 44.9297642 107.63565207 46.72243494 108.87393188 48.51150513 C110.8300067 51.33779505 112.77093559 54.1739193 114.70776367 57.01342773 C117.41560117 60.98251976 120.12824881 64.94825731 122.84375 68.91210938 C128.93799875 77.82299764 134.9498051 86.78890393 140.94418335 95.7671814 C142.79592419 98.53769977 144.65420012 101.30375383 146.51293945 104.06958008 C147.64048878 105.75578677 148.7677047 107.44221647 149.89453125 109.12890625 C150.41499023 109.90083313 150.93544922 110.67276001 151.47167969 111.46807861 C151.93968994 112.17156433 152.4077002 112.87505005 152.88989258 113.59985352 C153.50481316 114.5178347 153.50481316 114.5178347 154.13215637 115.45436096 C155 117 155 117 155 119 C157.83383572 116.30733677 160.08171827 113.61048385 162.22265625 110.34375 C162.83383301 109.41796143 163.44500977 108.49217285 164.07470703 107.53833008 C164.73067871 106.53568115 165.38665039 105.53303223 166.0625 104.5 C167.4975757 102.32608169 168.93382256 100.15293616 170.37109375 97.98046875 C170.74516357 97.41430344 171.1192334 96.84813812 171.50463867 96.26481628 C175.42519167 90.33892954 179.41714069 84.46223414 183.41577148 78.58886719 C189.66196643 69.41315259 195.89031951 60.22572562 202.0625 51 C202.9289917 49.70993042 202.9289917 49.70993042 203.81298828 48.39379883 C204.34005371 47.60384521 204.86711914 46.8138916 205.41015625 46 C205.86527588 45.319375 206.32039551 44.63875 206.78930664 43.9375 C209.68661949 39.30086464 210.3155945 36.64480503 209.52734375 31.2421875 C208.30072228 26.02677473 205.46376339 23.10379466 201.125 20.25 C195.22126813 16.8515418 189.70047657 15.69315275 183 15 C183 10.05 183 5.1 183 0 C218.64 0 254.28 0 291 0 C291 4.95 291 9.9 291 15 C288.98712891 15.14695312 288.98712891 15.14695312 286.93359375 15.296875 C264.95033989 17.04593581 246.42970267 21.26979252 231.0234375 38.16796875 C225.46693356 44.81062058 220.82503708 52.13227382 216.0703125 59.35546875 C213.28448077 63.58486783 210.44052385 67.77043244 207.5625 71.9375 C207.11656494 72.58372314 206.67062988 73.22994629 206.21118164 73.89575195 C205.28919764 75.23170135 204.36707624 76.56755593 203.44482422 77.90332031 C200.27850678 82.49817231 197.1327605 87.1071424 193.98339844 91.71362305 C191.20413079 95.77856905 188.42304047 99.84222872 185.63671875 103.90234375 C179.01690399 113.5531384 172.46134685 123.24234528 166 133 C169.19923885 138.95181703 172.63296747 144.63536319 176.4296875 150.22265625 C177.49505213 151.80575816 178.55980505 153.38927185 179.62402344 154.97314453 C180.45323303 156.20523651 180.45323303 156.20523651 181.29919434 157.46221924 C184.1857679 161.7692903 187.03375429 166.10165277 189.8828125 170.43359375 C190.75995407 171.7661042 190.75995407 171.7661042 191.65481567 173.12553406 C192.85961553 174.95582787 194.06425426 176.78622775 195.26873779 178.61672974 C204.61521545 192.81960805 213.98171941 207.00765161 223.43359375 221.140625 C230.6953604 232.01283849 237.86718141 242.94396163 245.03662109 253.87719727 C258.01048909 277.00663833 258.01048909 277.00663833 279.48046875 290.1015625 C285.6670825 291.25629015 291.8463736 291.44978252 298.125 291.625 C299.27226563 291.66367187 300.41953125 291.70234375 301.6015625 291.7421875 C304.40080569 291.83549561 307.20037972 291.91878964 310 292 C310 296.95 310 301.9 310 307 C268.75 307 227.5 307 185 307 C185 302.05 185 297.1 185 292 C187.10375 291.7525 189.2075 291.505 191.375 291.25 C198.89887287 290.16863366 205.35310207 288.45953581 211.6875 284.1875 C213.68079449 280.86534252 212.83273276 278.71907531 212 275 C210.66697893 272.61370782 209.35500218 270.52728406 207.76953125 268.328125 C206.84990343 267.00146185 205.93151062 265.67394202 205.01416016 264.34570312 C204.52336975 263.64227783 204.03257935 262.93885254 203.5269165 262.21411133 C200.8479306 258.3294372 198.28050075 254.37183843 195.69921875 250.421875 C194.55954714 248.68581112 193.41939852 246.9500603 192.27880859 245.21459961 C191.69347351 244.32368622 191.10813843 243.43277283 190.50506592 242.51486206 C180.01512691 226.55767774 169.46356477 210.64289397 158.80142212 194.8001709 C157.52147863 192.8981698 156.24264167 190.99542359 154.9649353 189.09191895 C153.18595133 186.44294817 151.40237278 183.79713805 149.6171875 181.15234375 C148.82697456 179.97420357 148.82697456 179.97420357 148.02079773 178.77226257 C147.53295303 178.0519838 147.04510834 177.33170502 146.54248047 176.58959961 C146.12143036 175.96508408 145.70038025 175.34056854 145.26657104 174.6971283 C143.97147569 172.96177915 142.56711545 171.49064079 141 170 C140.69647614 170.45750641 140.39295227 170.91501282 140.08023071 171.38638306 C136.87006301 176.22406213 133.65642459 181.05942274 130.44091797 185.89355469 C129.24734966 187.68888169 128.05461612 189.484764 126.86279297 191.28125 C120.91581751 200.24422732 114.94997309 209.17367852 108.64704895 217.89097595 C104.00672313 224.33084924 99.61967434 230.93836396 95.23071289 237.55102539 C93.80558024 239.69792431 92.37670322 241.84229368 90.94726562 243.98632812 C88.28582815 247.98279365 85.63783229 251.98791895 83 256 C82.27619141 257.10069824 81.55238281 258.20139648 80.80664062 259.33544922 C79.86014648 260.7955542 79.86014648 260.7955542 78.89453125 262.28515625 C78.35546143 263.11539307 77.8163916 263.94562988 77.26098633 264.80102539 C75.45251398 267.95473506 74.8604329 270.37125546 75 274 C77.06294074 280.64725348 80.54513796 284.79181022 86.5625 288.1875 C91.79233628 290.66690415 97.30759971 291.2237636 103 292 C103 296.95 103 301.9 103 307 C77.92 307 52.84 307 27 307 C26.21625 312.176875 25.4325 317.35375 24.625 322.6875 C21.96911643 340.03932422 19.19251027 357.37136608 16.36810303 374.69644165 C15.91291777 377.48861684 15.45960708 380.28108636 15.00787354 383.07382202 C14.36824763 387.02659167 13.72166568 390.97819128 13.07421875 394.9296875 C12.87965591 396.13521774 12.68509308 397.34074799 12.4846344 398.58280945 C12.21319862 400.22767082 12.21319862 400.22767082 11.9362793 401.90576172 C11.77894821 402.86956757 11.62161713 403.83337341 11.45951843 404.8263855 C11 407 11 407 10 408 C8.6134317 408.09648067 7.22197394 408.12371896 5.83205318 408.12304783 C4.92786268 408.12503888 4.02367218 408.12702993 3.09208196 408.12908131 C1.58481781 408.12471205 1.58481781 408.12471205 0.04710388 408.12025452 C-1.54063785 408.12153615 -1.54063785 408.12153615 -3.16045517 408.12284368 C-6.73662556 408.12450164 -10.31274989 408.11897198 -13.88891602 408.11352539 C-16.4407552 408.11324356 -18.99259446 408.11340117 -21.54443359 408.1139679 C-27.05345314 408.11419622 -32.56245763 408.1113447 -38.07147408 408.10573006 C-46.03667303 408.0976174 -54.00186626 408.09500008 -61.9670689 408.09374207 C-74.88877509 408.09155118 -87.81047497 408.08489009 -100.73217773 408.07543945 C-113.28751595 408.06626629 -125.84285247 408.05918499 -138.39819336 408.05493164 C-139.17156249 408.05466892 -139.94493162 408.05440619 -140.74173618 408.05413551 C-144.62133999 408.05283051 -148.50094381 408.05156679 -152.38054764 408.05032361 C-184.58703638 408.03994984 -216.79351721 408.02225641 -249 408 C-249 403.05 -249 398.1 -249 393 C-246.95039062 392.96261719 -244.90078125 392.92523438 -242.7890625 392.88671875 C-240.76999546 392.83798265 -238.75092963 392.78914278 -236.73193359 392.73754883 C-235.34532345 392.70461081 -233.95858923 392.6764856 -232.57177734 392.65356445 C-218.7442535 392.60888635 -218.7442535 392.60888635 -206.4375 387.0625 C-204.11820654 383.73481808 -203.875134 380.59324306 -203.86857224 376.60740185 C-203.86473109 375.72942226 -203.86088995 374.85144266 -203.8569324 373.94685763 C-203.85823213 372.5065549 -203.85823213 372.5065549 -203.85955811 371.03715515 C-203.85658698 370.01370477 -203.85361586 368.99025439 -203.8505547 367.93579036 C-203.84186181 364.49584095 -203.84035896 361.05592633 -203.83886719 357.6159668 C-203.83423947 355.1538587 -203.82921487 352.69175132 -203.82382202 350.22964478 C-203.81069241 343.53334287 -203.8042154 336.8370546 -203.79981136 330.14074302 C-203.79704773 325.95895304 -203.79281017 321.77716538 -203.78830719 317.59537697 C-203.77611602 306.01530318 -203.76581615 294.43523124 -203.7624321 282.85515118 C-203.76221253 282.11418217 -203.76199297 281.37321316 -203.76176675 280.60979055 C-203.76154847 279.86705922 -203.76133019 279.12432789 -203.7611053 278.35908955 C-203.76066183 276.85405775 -203.76021527 275.34902594 -203.75976562 273.84399414 C-203.7595442 273.09744801 -203.75932277 272.35090188 -203.75909463 271.58173314 C-203.75514646 259.48458431 -203.73769122 247.3874957 -203.7144061 235.29037013 C-203.69068804 222.86798097 -203.67823005 210.44562204 -203.67706418 198.02320987 C-203.67614772 191.04944853 -203.6704026 184.07576569 -203.65224457 177.10202599 C-203.63522665 170.54309889 -203.63359436 163.98429449 -203.64238358 157.42534256 C-203.64315548 155.01750223 -203.63879118 152.60965397 -203.62892532 150.20183372 C-203.61624961 146.91564257 -203.62205921 143.62998303 -203.63250732 140.34379578 C-203.62445092 139.39028612 -203.61639452 138.43677647 -203.60809398 137.45437258 C-203.64959606 131.87568733 -204.30315855 127.92225447 -207 123 C-217.25128917 115.17664774 -236.78362067 117.39643246 -249 117 C-249 112.38 -249 107.76 -249 103 C-238.11 103 -227.22 103 -216 103 C-216.62970534 97.87977294 -217.26565416 92.76103896 -217.91650391 87.64355469 C-218.1351657 85.91026775 -218.35045508 84.17655131 -218.56201172 82.44238281 C-221.91986619 52.48535351 -221.91986619 52.48535351 -238.734375 28.609375 C-255.48649279 17.11825288 -278.3180065 17.93032053 -297.75 17.875 C-298.88638916 17.87032715 -300.02277832 17.8656543 -301.19360352 17.86083984 C-314.12780361 17.16876292 -314.12780361 17.16876292 -326 21 C-328.70406482 25.78838018 -328.27859369 30.83792944 -328.25396729 36.17248535 C-328.25708727 37.20636839 -328.26020725 38.24025144 -328.26342177 39.30546427 C-328.27140795 42.77466414 -328.26507562 46.2436894 -328.25878906 49.71289062 C-328.26149864 52.19809573 -328.26505939 54.68330003 -328.26940918 57.16850281 C-328.27759079 63.22081286 -328.27638131 69.27305422 -328.2705839 75.32536161 C-328.2660673 80.24415899 -328.2654545 85.16294247 -328.26763153 90.08174133 C-328.26809123 91.13180933 -328.26809123 91.13180933 -328.26856022 92.20309082 C-328.26919967 93.62521549 -328.26984809 95.04734017 -328.2705054 96.46946484 C-328.2762086 109.80500817 -328.26965095 123.14052401 -328.25890467 136.47606283 C-328.24996916 147.91878873 -328.2515212 159.36147405 -328.26074219 170.80419922 C-328.27144498 184.09199679 -328.27565928 197.37977026 -328.26951766 210.66757154 C-328.26888056 212.08446725 -328.26825182 213.50136296 -328.26763153 214.91825867 C-328.26732298 215.61540007 -328.26701443 216.31254146 -328.26669653 217.03080836 C-328.26496962 221.94374731 -328.26788461 226.85667097 -328.27259064 231.76960754 C-328.2787852 238.38188219 -328.27437542 244.99409198 -328.26280212 251.6063633 C-328.26015313 254.03600245 -328.2609247 256.46564804 -328.26532745 258.89528465 C-328.27077477 262.20611581 -328.26395844 265.51669935 -328.25396729 268.82751465 C-328.25842873 269.79394976 -328.26289017 270.76038487 -328.26748681 271.7561059 C-328.26299633 278.12181867 -328.26299633 278.12181867 -326 284 C-314.88412617 293.13681951 -296.63361894 291.51634095 -283 291.6875 C-281.14581081 291.72077283 -279.29164319 291.75527114 -277.4375 291.79101562 C-272.95845536 291.87475495 -268.47944992 291.94208711 -264 292 C-264 296.95 -264 301.9 -264 307 C-320.43 307 -376.86 307 -435 307 C-435 302.05 -435 297.1 -435 292 C-433.26266602 291.97812622 -433.26266602 291.97812622 -431.49023438 291.95581055 C-427.11381055 291.89699412 -422.73785754 291.81978265 -418.36181641 291.73754883 C-416.48266347 291.70468529 -414.60342094 291.67653918 -412.72412109 291.65356445 C-391.86957303 292.13229427 -391.86957303 292.13229427 -373 285 C-371.20920185 282.08868121 -370.74888416 279.8988927 -370.74273109 276.50531769 C-370.73305776 275.1542226 -370.73305776 275.1542226 -370.723189 273.77583265 C-370.7262862 272.79023879 -370.7293834 271.80464492 -370.73257446 270.78918457 C-370.72577779 269.21408198 -370.72577779 269.21408198 -370.71884382 267.60715914 C-370.70615095 264.07725447 -370.70782334 260.54750313 -370.70947266 257.01757812 C-370.70349056 254.49148865 -370.69668575 251.96540101 -370.68911743 249.4393158 C-370.67325941 243.28360878 -370.66700777 237.12795823 -370.66589268 230.9722327 C-370.66494257 225.9699727 -370.66083414 220.96772536 -370.65449142 215.96546936 C-370.63687972 201.78761339 -370.62765269 187.6097877 -370.62915237 173.43192071 C-370.62927224 172.28540267 -370.62927224 172.28540267 -370.62939453 171.11572266 C-370.62951717 169.96780753 -370.62951717 169.96780753 -370.62964229 168.79670221 C-370.63045565 156.38710913 -370.61130538 143.97763729 -370.5831178 131.56807929 C-370.55441282 118.8304249 -370.54057612 106.09282969 -370.54230535 93.35514212 C-370.54296998 86.20204644 -370.53744574 79.04907794 -370.51594925 71.89601135 C-370.4958719 65.17205518 -370.49638654 58.44841278 -370.51098251 51.72442818 C-370.51308168 49.25243806 -370.50830436 46.78043144 -370.4962616 44.30846977 C-370.48092042 40.94226388 -370.49004399 37.57699975 -370.50552368 34.21081543 C-370.49523656 33.22522156 -370.48494943 32.2396277 -370.47435057 31.22416735 C-370.46804886 25.95548444 -370.46804886 25.95548444 -372.88588524 21.41358185 C-388.33838242 11.08142301 -423.37857515 17.72739523 -440.74609375 20.625 C-452.23511995 23.20088358 -462.53482762 28.38938347 -469.125 38.375 C-480.22038542 58.16916759 -480.80730759 82.9953208 -483 105 C-486.96 105 -490.92 105 -495 105 C-494.37424215 85.79570744 -492.78770346 66.67918001 -491.20825195 47.53552246 C-490.92799482 44.12331797 -490.65260474 40.71072748 -490.37722778 37.29812622 C-490.10980287 33.98995012 -489.83982823 30.68198607 -489.56903076 27.37408447 C-489.44078554 25.80492617 -489.31321015 24.23571297 -489.18634033 22.66644287 C-489.0095588 20.48574617 -488.82945433 18.30534869 -488.6484375 16.125 C-488.54708496 14.89007813 -488.44573242 13.65515625 -488.34130859 12.3828125 C-488.02415139 9.23937169 -487.51940217 6.11641303 -487 3 C-396.25 3 -305.5 3 -212 3 C-210.71672948 14.54943469 -209.48973219 26.07522985 -208.4921875 37.6484375 C-208.3605668 39.16338462 -208.22890278 40.67832797 -208.09719849 42.19326782 C-207.82506549 45.33069379 -207.5547868 48.46827317 -207.28564453 51.60595703 C-206.94328138 55.59324022 -206.59409017 59.57989446 -206.24328423 63.56644249 C-205.97038332 66.68053494 -205.70217507 69.79501917 -205.435215 72.90962601 C-205.30851617 74.37913061 -205.18017986 75.84849513 -205.05004501 77.31769943 C-204.86811251 79.37726112 -204.6928571 81.43729784 -204.51904297 83.49755859 C-204.41848602 84.66016205 -204.31792908 85.8227655 -204.21432495 87.02059937 C-203.92783831 92.33983603 -204 97.67305403 -204 103 C-135.36 103 -66.72 103 4 103 C7.47274155 126.15161034 7.47274155 126.15161034 8.86454773 137.41189575 C8.96506628 138.22278782 9.06558483 139.03367989 9.1691494 139.86914444 C9.27188478 140.6986549 9.37462017 141.52816536 9.48046875 142.3828125 C9.7002028 144.1430788 9.92012148 145.90332206 10.14021301 147.6635437 C10.59459817 151.30171161 11.04736047 154.94007614 11.4987793 158.57861328 C12.07790107 163.24602337 12.66037691 167.91300754 13.24392223 172.57986641 C13.69528015 176.1912717 14.14535914 179.80283541 14.5949955 183.41445541 C14.80961 185.13773133 15.02452173 186.86097025 15.23973656 188.5841713 C15.53761189 190.9714893 15.83386972 193.35900227 16.12963867 195.74658203 C16.21843292 196.45602966 16.30722717 197.16547729 16.39871216 197.89642334 C17 202.77099395 17 202.77099395 17 205 C12.71 205 8.42 205 4 205 C3.54560547 201.83083984 3.54560547 201.83083984 3.08203125 198.59765625 C-1.34495146 162.43468712 -1.34495146 162.43468712 -21 133 C-41.40216261 118.91998901 -64.9563202 117.84273848 -88.953125 117.83203125 C-90.66558865 117.82881004 -92.37805203 117.82544534 -94.09051514 117.82194519 C-97.65735513 117.81599733 -101.22417103 117.81410107 -104.79101562 117.81469727 C-109.34570198 117.8147993 -113.90023391 117.80108497 -118.45488358 117.78392506 C-121.98261213 117.7727799 -125.51030343 117.77077874 -129.03804779 117.77130699 C-130.71725757 117.77013307 -132.3964685 117.7657446 -134.07566071 117.75797462 C-136.42457348 117.74811185 -138.77315147 117.75107599 -141.12207031 117.75708008 C-141.80381317 117.75146057 -142.48555603 117.74584106 -143.18795776 117.74005127 C-148.50328263 117.77435352 -154.55063785 118.18273131 -158.9375 121.4375 C-160.99849939 124.46838145 -161.13140593 127.22149728 -161.15821838 130.76457214 C-161.1680072 131.74473801 -161.17779602 132.72490387 -161.18788147 133.73477173 C-161.19363693 134.80867157 -161.1993924 135.88257141 -161.20532227 136.98901367 C-161.21522186 138.12086594 -161.22512146 139.2527182 -161.23532104 140.41886902 C-161.26696598 144.16854748 -161.29170541 147.91823863 -161.31640625 151.66796875 C-161.33697318 154.26443312 -161.35796958 156.86089412 -161.37937927 159.45735168 C-161.42897673 165.59835846 -161.47423509 171.73938325 -161.51740164 177.88043815 C-161.5667875 184.87194113 -161.62170062 191.86339727 -161.67708123 198.85485494 C-161.79087705 213.23652596 -161.89772132 227.6182427 -162 242 C-155.27776404 241.90672112 -148.55585438 241.79930304 -141.83398438 241.68261719 C-139.55311038 241.64462409 -137.27218249 241.60972287 -134.99121094 241.578125 C-107.41265955 242.2881493 -107.41265955 242.2881493 -83.46484375 230.6875 C-76.1763533 222.291159 -75.78190356 210.46049727 -74.875 199.875 C-74.74544922 198.44027344 -74.74544922 198.44027344 -74.61328125 196.9765625 C-74.40402305 194.65147141 -74.2013117 192.32579259 -74 190 C-70.04 190 -66.08 190 -62 190 C-62 229.27 -62 268.54 -62 309 C-65.96 309 -69.92 309 -74 309 C-74.25523437 306.26783203 -74.25523437 306.26783203 -74.515625 303.48046875 C-74.7596701 301.04940411 -75.0045038 298.61841854 -75.25 296.1875 C-75.35957031 294.99189453 -75.46914063 293.79628906 -75.58203125 292.56445312 C-76.54887917 283.22673773 -77.89141021 272.81736265 -85 266 C-87.61510114 264.20271026 -87.61510114 264.20271026 -90.5625 262.8125 C-91.51253906 262.32394531 -92.46257812 261.83539063 -93.44140625 261.33203125 C-102.32370899 258.00726151 -111.49389499 257.68243119 -120.88671875 257.5859375 C-122.06974075 257.56657135 -123.25276276 257.5472052 -124.47163391 257.5272522 C-128.21018508 257.46798789 -131.94876793 257.42128516 -135.6875 257.375 C-138.23894492 257.33677125 -140.79037761 257.29771676 -143.34179688 257.2578125 C-149.56108848 257.16233068 -155.78045517 257.07713137 -162 257 C-161.93946654 273.60289406 -161.86196751 290.20560882 -161.76428509 306.80832195 C-161.71932446 314.51730164 -161.67991046 322.2262351 -161.65356445 329.93530273 C-161.63058648 336.65473566 -161.59719082 343.37402233 -161.55129844 350.09333926 C-161.52736334 353.65100544 -161.50863652 357.20852674 -161.50238609 360.76627159 C-161.49521231 364.738467 -161.46477971 368.71029937 -161.43237305 372.68237305 C-161.43452568 374.45075027 -161.43452568 374.45075027 -161.4367218 376.25485229 C-161.41791458 377.88067986 -161.41791458 377.88067986 -161.39872742 379.53935242 C-161.39411845 380.47865947 -161.38950949 381.41796652 -161.38476086 382.38573742 C-160.83541034 386.11830655 -159.33634297 388.94669095 -156.3565979 391.29533386 C-152.70708752 392.38660462 -149.06912358 392.28596648 -145.29443359 392.2746582 C-144.41568069 392.27976913 -143.5369278 392.28488007 -142.63154602 392.29014587 C-139.72044074 392.304063 -136.80957216 392.30308127 -133.8984375 392.30078125 C-131.86219191 392.30467152 -129.82594712 392.30900687 -127.78970337 392.31376648 C-123.51081727 392.32123652 -119.23201362 392.32093501 -114.953125 392.31567383 C-109.51801534 392.30992623 -104.08325172 392.32669125 -98.64819908 392.3500185 C-94.43376753 392.36489996 -90.2194161 392.36560735 -86.00496292 392.36250877 C-84.00466867 392.36301638 -82.00436924 392.36814667 -80.0041008 392.37832069 C-54.54787709 392.49175155 -29.17853372 389.41021034 -10 371 C5.14829796 353.78468282 9.71443373 328.75749027 14 307 C7.4 307 0.8 307 -6 307 C-6 302.05 -6 297.1 -6 292 C-4.65808594 291.90203125 -3.31617188 291.8040625 -1.93359375 291.703125 C20.04966011 289.95406419 38.57029733 285.73020748 53.9765625 268.83203125 C59.2448393 262.53394726 63.6626002 255.62816538 68.171875 248.78125 C72.98949567 241.4786407 77.9057676 234.24286511 82.8125 227 C83.80530081 225.53380234 84.79805757 224.06757485 85.79077148 222.60131836 C87.31376399 220.35188681 88.83681471 218.10249483 90.36009216 215.85325623 C93.95773702 210.54080119 97.55192084 205.22601687 101.14453125 199.91015625 C101.64457169 199.17055664 102.14461212 198.43095703 102.6598053 197.66894531 C105.11617039 194.03573039 107.57103812 190.40152379 110.02270508 186.76513672 C114.09027154 180.73730309 118.17069468 174.72446019 122.3671875 168.78515625 C123.30667236 167.44795532 123.30667236 167.44795532 124.26513672 166.08374023 C125.37810489 164.50638273 126.50128981 162.93615634 127.63720703 161.37524414 C130.19378474 158.08536804 130.19378474 158.08536804 130.85058594 154.15576172 C129.69067654 151.21603726 128.07651945 148.79068274 126.328125 146.15625 C125.9425795 145.57171555 125.557034 144.98718109 125.1598053 144.38493347 C123.86182232 142.41973568 122.55587005 140.45996398 121.25 138.5 C120.31999378 137.0951804 119.3905657 135.68997792 118.46166992 134.28442383 C116.42347962 131.2017321 114.38227052 128.12106634 112.33935547 125.04150391 C108.80925746 119.71656511 105.29622792 114.3804655 101.78515625 109.04296875 C89.23021496 89.96055237 76.64536871 70.89944678 63.94482422 51.91357422 C61.93736781 48.90616965 59.93832619 45.89331591 57.94140625 42.87890625 C57.2961499 41.90622803 56.65089355 40.9335498 55.98608398 39.93139648 C54.79236107 38.13133812 53.60031528 36.33016578 52.41040039 34.52758789 C47.23967978 26.309697 47.23967978 26.309697 39.8125 20.3125 C39.11769531 19.91675781 38.42289063 19.52101563 37.70703125 19.11328125 C29.54833017 15.75797128 21.15815259 15.60664988 12.4375 15.375 C11.23802734 15.33632813 10.03855469 15.29765625 8.80273438 15.2578125 C5.86872128 15.16429814 2.9343826 15.08109566 0 15 C0 10.05 0 5.1 0 0 Z " fill="#FFFFFF" transform="translate(851,47)"/>
<path d="M0 0 C1.36165283 0.03029297 2.72330566 0.06058594 4.1262207 0.09179688 C50.79807624 1.11862524 97.33121189 0.89834968 144 0 C144 4.95 144 9.9 144 15 C142.93676514 15.01981934 141.87353027 15.03963867 140.77807617 15.06005859 C136.78388187 15.13688483 132.79001591 15.22547438 128.79614258 15.31738281 C127.07680811 15.35535782 125.35740266 15.39026177 123.63793945 15.421875 C105.73217192 14.98287137 105.73217192 14.98287137 90 22 C86.07029433 27.89455851 86.85485466 35.24814369 86.86628723 42.11360168 C86.8628889 43.61882048 86.8628889 43.61882048 86.85942191 45.15444773 C86.85310379 48.5089828 86.85390987 51.86347723 86.85473633 55.21801758 C86.85174348 57.62643994 86.84834066 60.03486183 86.84455872 62.44328308 C86.83664439 68.30179335 86.83350462 74.16029412 86.83294634 80.01880864 C86.83247041 84.78305026 86.83041181 89.54728858 86.82724571 94.31152916 C86.81844373 107.83254916 86.81382564 121.35356123 86.81457619 134.87458412 C86.81463612 135.9669079 86.81463612 135.9669079 86.81469727 137.08129883 C86.81475859 138.17496326 86.81475859 138.17496326 86.81482115 139.29072192 C86.81522751 151.1043453 86.80565911 162.9179368 86.7915589 174.73155097 C86.77717997 186.87493639 86.77028955 199.01830628 86.77115268 211.16170043 C86.77148411 217.97396707 86.7687603 224.78620029 86.75797462 231.59845924 C86.74789374 238.0063961 86.74822047 244.41428066 86.75549126 250.82222176 C86.756536 253.17074944 86.75418075 255.51928154 86.7481308 257.86780167 C86.74039245 261.08043277 86.745068 264.29282136 86.75276184 267.50544739 C86.74761828 268.42871742 86.74247471 269.35198744 86.73717529 270.30323535 C86.76852426 276.25093491 87.04296035 282.33339414 89 288 C94.87303987 292.45625003 102.6742507 291.44985907 109.76171875 291.43359375 C111.11627968 291.43816845 112.47083831 291.4434778 113.82539368 291.44947815 C116.66567388 291.45839285 119.50567288 291.45601391 122.34594727 291.44604492 C125.21733996 291.43693272 128.08791406 291.44358551 130.95922852 291.46655273 C158.01341318 291.68207739 185.9325617 290.60183818 207 271.1484375 C225.82557025 250.92565696 229.77334702 223.63446998 232.69042969 197.21630859 C233 195 233 195 234 191 C237.96 191 241.92 191 246 191 C245.33794542 203.85595413 244.09459747 216.62185995 242.75 229.421875 C242.529418 231.54174713 242.3090442 233.66164094 242.08886719 235.78155518 C241.63037053 240.18890382 241.16956577 244.59600302 240.70703125 249.00292969 C240.11434438 254.65148965 239.52726291 260.30061589 238.9418335 265.9499321 C238.48928242 270.31152406 238.03395337 274.67282249 237.57775879 279.03403473 C237.36004198 281.11837419 237.14315759 283.20280077 236.92712402 285.28731537 C236.62609672 288.18761393 236.32136689 291.08749986 236.015625 293.98730469 C235.92728394 294.84545776 235.83894287 295.70361084 235.7479248 296.58776855 C235.66385376 297.37790344 235.57978271 298.16803833 235.49316406 298.9821167 C235.38587982 300.00731981 235.38587982 300.00731981 235.27642822 301.0532341 C234.99140891 303.06050338 234.49171764 305.03312946 234 307 C156.78 307 79.56 307 0 307 C0 302.05 0 297.1 0 292 C1.83304688 291.95101563 3.66609375 291.90203125 5.5546875 291.8515625 C7.99480525 291.77648195 10.43490873 291.70093645 12.875 291.625 C14.07898438 291.5940625 15.28296875 291.563125 16.5234375 291.53125 C30.72540511 291.27415904 30.72540511 291.27415904 43 285 C43.93251282 282.20246153 44.12678999 280.52156516 44.13142776 277.63115883 C44.13718948 276.28397536 44.13718948 276.28397536 44.1430676 274.90957606 C44.14220112 273.92175147 44.14133463 272.93392688 44.14044189 271.91616821 C44.14341302 270.86765981 44.14638414 269.81915141 44.1494453 268.73887002 C44.15815097 265.20822959 44.15964212 261.67762299 44.16113281 258.14697266 C44.16575961 255.62265449 44.17078408 253.09833703 44.17617798 250.57402039 C44.18931608 243.70424643 44.19578603 236.83448365 44.20018864 229.96469927 C44.20295057 225.67622663 44.20718781 221.38775624 44.21169281 217.09928513 C44.22388505 205.22844141 44.23418482 193.3575995 44.2375679 181.48674965 C44.23778747 180.72693673 44.23800703 179.96712381 44.23823325 179.18428626 C44.23845153 178.42264622 44.23866981 177.66100619 44.2388947 176.87628615 C44.23933817 175.33288868 44.23978473 173.78949122 44.24023438 172.24609375 C44.24056652 171.09772384 44.24056652 171.09772384 44.24090537 169.92615454 C44.24485456 157.51719844 44.26231243 145.10830102 44.2855939 132.6993676 C44.30929731 119.96287637 44.32176927 107.2264146 44.32293582 94.48990095 C44.32385309 87.33733701 44.32961852 80.18484956 44.34775543 73.03230667 C44.3647494 66.30676539 44.36641664 59.58139423 44.35761642 52.85582924 C44.35684333 50.38426004 44.36122441 47.91268319 44.37107468 45.4411335 C44.38371278 42.07318011 44.37796148 38.70574823 44.36749268 35.33779907 C44.37554908 34.35443593 44.38360548 33.37107278 44.39190602 32.35791075 C44.34500787 25.67527557 44.34500787 25.67527557 41 20 C34.73750826 16.75278206 29.13956655 15.89857694 22.16796875 15.68359375 C20.87568359 15.64169922 19.58339844 15.59980469 18.25195312 15.55664062 C16.89713808 15.51683648 15.54232033 15.47712409 14.1875 15.4375 C12.81313895 15.39426277 11.43878976 15.35064688 10.06445312 15.30664062 C6.70975096 15.20070266 3.35488857 15.09986052 0 15 C0 10.05 0 5.1 0 0 Z " fill="#FFFFFF" transform="translate(40,47)"/>
<path d="M0 0 C0.9590625 -0.01933594 1.918125 -0.03867187 2.90625 -0.05859375 C5.5 0.4375 5.5 0.4375 6.98925781 2.05200195 C8.83383631 4.96463552 10.01767742 7.8851005 11.265625 11.1015625 C11.5311618 11.78008774 11.79669861 12.45861298 12.07028198 13.15769958 C12.6560203 14.65641828 13.23892484 16.15624673 13.81939697 17.65701294 C15.11950226 21.01761501 16.43373433 24.37264519 17.74673462 27.72822571 C18.47528586 29.59065071 19.20310573 31.45336195 19.93026733 33.31632996 C24.29633619 44.49709641 28.72880748 55.65145674 33.15866089 66.80706787 C35.3874291 72.42015538 37.6143681 78.03396816 39.84119225 83.64782715 C40.59010959 85.53582643 41.33909897 87.42379713 42.08808899 89.31176758 C45.3762825 97.60089118 48.66016517 105.89171539 51.94140625 114.18359375 C56.67891119 126.15524943 61.42258984 138.12444244 66.17218018 150.09130859 C67.551442 153.56713715 68.92976776 157.04333614 70.30810547 160.51953125 C72.63160345 166.37761565 74.9601383 172.23367667 77.29214478 178.08837891 C78.17270317 180.30099482 79.05177998 182.514201 79.92929077 184.72802734 C81.13886063 187.77867081 82.35388192 190.82708696 83.5703125 193.875 C83.92556503 194.77444336 84.28081757 195.67388672 84.64683533 196.60058594 C87.31142338 204.25927141 87.31142338 204.25927141 92.8125 209.6875 C98.60792102 211.3048268 104.39865315 211.69105326 110.375 212 C111.550625 212.06477539 111.550625 212.06477539 112.75 212.13085938 C114.66650649 212.23603351 116.58323333 212.33717925 118.5 212.4375 C118.5 216.3975 118.5 220.3575 118.5 224.4375 C88.8 224.4375 59.1 224.4375 28.5 224.4375 C28.5 220.4775 28.5 216.5175 28.5 212.4375 C29.72976563 212.32792969 30.95953125 212.21835938 32.2265625 212.10546875 C33.85943595 211.94593514 35.49224526 211.78574407 37.125 211.625 C38.33736328 211.51961914 38.33736328 211.51961914 39.57421875 211.41210938 C44.40789637 210.92088197 48.42271013 210.29932018 52.5 207.4375 C53.73534584 203.63384468 53.44066901 201.35706737 51.96118164 197.69482422 C51.60073257 196.78393036 51.24028351 195.8730365 50.86891174 194.93453979 C50.47002243 193.96356354 50.07113312 192.99258728 49.66015625 191.9921875 C49.25921249 190.98535919 48.85826874 189.97853088 48.44517517 188.94119263 C47.16299915 185.72664592 45.8637445 182.51936986 44.5625 179.3125 C43.26752279 176.09750006 41.97623075 172.88110766 40.6905365 169.66238403 C39.88972389 167.66002643 39.0830517 165.66000057 38.27003479 163.66256714 C37.90643356 162.7579776 37.54283234 161.85338806 37.16821289 160.92138672 C36.84542862 160.12594452 36.52264435 159.33050232 36.19007874 158.51095581 C35.5 156.4375 35.5 156.4375 35.5 153.4375 C-8.555 153.9325 -8.555 153.9325 -53.5 154.4375 C-63.73336926 172.98149975 -63.73336926 172.98149975 -68.5625 202.5625 C-64.42143789 208.33488961 -59.38422609 210.48138617 -52.5 211.75 C-50.025 212.0903125 -50.025 212.0903125 -47.5 212.4375 C-47.5 216.3975 -47.5 220.3575 -47.5 224.4375 C-70.93 224.4375 -94.36 224.4375 -118.5 224.4375 C-118.5 220.4775 -118.5 216.5175 -118.5 212.4375 C-117.38882813 212.27894531 -116.27765625 212.12039062 -115.1328125 211.95703125 C-99.1737745 209.59137094 -99.1737745 209.59137094 -86.93847656 199.7253418 C-79.74761285 188.28854888 -75.73721397 173.9963335 -70.84573364 161.47845459 C-68.66051807 155.88682202 -66.4691419 150.29760635 -64.2775631 144.70846558 C-63.77360368 143.42317589 -63.2697194 142.13785673 -62.76590919 140.85250854 C-57.39839628 127.15917123 -51.98619259 113.48367953 -46.5625 99.8125 C-45.68284154 97.59465303 -44.80320273 95.37679827 -43.92358398 93.15893555 C-42.64584885 89.93728539 -41.36811286 86.71563559 -40.09025574 83.49403381 C-36.52626594 74.50744029 -32.97148839 65.5172336 -29.42269897 56.52462769 C-28.51743316 54.2316569 -27.61101774 51.93914357 -26.7043457 49.64672852 C-24.02317606 42.86344877 -21.35446671 36.07588497 -18.7232666 29.27304077 C-17.52186126 26.16817022 -16.31502764 23.06542201 -15.10791016 19.96276855 C-14.54278564 18.50516865 -13.98053676 17.04645006 -13.42138672 15.58654785 C-12.65770917 13.59266917 -11.88459223 11.60269588 -11.109375 9.61328125 C-10.67592773 8.48833252 -10.24248047 7.36338379 -9.79589844 6.2043457 C-7.42203708 1.13596387 -5.57121798 0.0074882 0 0 Z M-10.5 42.4375 C-11.20008179 44.22921631 -11.20008179 44.22921631 -11.91430664 46.05712891 C-14.12955859 51.72590369 -16.3459822 57.39422008 -18.5625 63.0625 C-19.16800186 64.61130859 -19.16800186 64.61130859 -19.78573608 66.19140625 C-24.12481207 77.28871476 -28.47039435 88.3832563 -32.859375 99.4609375 C-33.19774887 100.31547516 -33.53612274 101.17001282 -33.88475037 102.05044556 C-35.46629973 106.04352705 -37.05045658 110.03554136 -38.63891602 114.02587891 C-39.2137848 115.47555407 -39.78857736 116.92525946 -40.36328125 118.375 C-40.85094971 119.60089844 -41.33861816 120.82679688 -41.84106445 122.08984375 C-44.16052647 128.16857512 -46.31172191 134.31032135 -48.5 140.4375 C-22.76 140.4375 2.98 140.4375 29.5 140.4375 C27.23713795 133.56133198 27.23713795 133.56133198 24.74511719 126.79614258 C24.43286194 125.99719574 24.12060669 125.1982489 23.79888916 124.37509155 C23.46822449 123.53588165 23.13755981 122.69667175 22.796875 121.83203125 C22.44187927 120.9257901 22.08688354 120.01954895 21.72113037 119.08584595 C20.56633575 116.13967609 19.40824102 113.19481647 18.25 110.25 C17.44710964 108.20391862 16.64437702 106.15777534 15.84179688 104.11157227 C9.3647034 87.60600234 2.86236701 71.11030705 -3.65625 54.62109375 C-3.91690247 53.96170807 -4.17755493 53.30232239 -4.44610596 52.62295532 C-5.79020455 49.22489874 -7.14020843 45.8293079 -8.5 42.4375 C-9.16 42.4375 -9.82 42.4375 -10.5 42.4375 Z " fill="#FFFFFF" transform="translate(269.5,39.5625)"/>
</svg>
