<?xml version="1.0" encoding="UTF-8"?>
<!DOCTYPE svg PUBLIC "-//W3C//DTD SVG 1.1//EN" "http://www.w3.org/Graphics/SVG/1.1/DTD/svg11.dtd">
<svg xmlns="http://www.w3.org/2000/svg" version="1.1" width="800px" height="800px" style="shape-rendering:geometricPrecision; text-rendering:geometricPrecision; image-rendering:optimizeQuality; fill-rule:evenodd; clip-rule:evenodd" xmlns:xlink="http://www.w3.org/1999/xlink">
<g><path style="opacity:1" fill="#fefffe" d="M -0.5,-0.5 C 266.167,-0.5 532.833,-0.5 799.5,-0.5C 799.5,266.167 799.5,532.833 799.5,799.5C 532.833,799.5 266.167,799.5 -0.5,799.5C -0.5,532.833 -0.5,266.167 -0.5,-0.5 Z M 179.5,135.5 C 203.449,132.871 223.949,139.871 241,156.5C 259.866,182.65 260.199,208.983 242,235.5C 224.239,253.421 202.739,260.587 177.5,257C 138.443,249.054 120.61,225.221 124,185.5C 131.331,156.332 149.831,139.665 179.5,135.5 Z M 523.5,299.5 C 561.662,295.786 595.996,305.286 626.5,328C 650.291,349.737 665.124,376.57 671,408.5C 672.824,417.762 674.158,427.095 675,436.5C 675.5,512.166 675.667,587.833 675.5,663.5C 636.5,663.5 597.5,663.5 558.5,663.5C 558.667,597.166 558.5,530.832 558,464.5C 557.766,448.328 554.1,432.995 547,418.5C 535.989,400.217 519.656,391.217 498,391.5C 465.078,393.961 443.745,410.961 434,442.5C 432.522,516.139 432.022,589.806 432.5,663.5C 393.167,663.5 353.833,663.5 314.5,663.5C 315.435,544.831 315.435,426.165 314.5,307.5C 353.833,307.5 393.167,307.5 432.5,307.5C 432.466,325.012 432.466,342.346 432.5,359.5C 453.047,324.722 483.38,304.722 523.5,299.5 Z M 130.5,307.5 C 169.5,307.5 208.5,307.5 247.5,307.5C 247.5,426.167 247.5,544.833 247.5,663.5C 208.5,663.5 169.5,663.5 130.5,663.5C 130.5,544.833 130.5,426.167 130.5,307.5 Z"/></g>
</svg>
