<?xml version="1.0" encoding="UTF-8"?>
<svg version="1.1" xmlns="http://www.w3.org/2000/svg" width="800" height="800">
<path d="M0 0 C1.05251953 0.18272461 2.10503906 0.36544922 3.18945312 0.55371094 C30.01339628 5.30524712 56.62520382 13.77818171 81 26 C81.77907715 26.38478516 82.5581543 26.76957031 83.36083984 27.16601562 C117.84916949 44.308476 149.85803319 68.71752047 175 98 C175.50208984 98.58442871 176.00417969 99.16885742 176.52148438 99.77099609 C189.77503602 115.34351172 200.9825795 132.1966532 211 150 C211.34337402 150.59635254 211.68674805 151.19270508 212.04052734 151.80712891 C240.9494192 202.09142156 255.72612648 269.66501202 244 327 C243.82259277 327.90008789 243.64518555 328.80017578 243.46240234 329.72753906 C237.74603464 357.95543794 227.77525289 385.76742755 216 412 C215.55221191 413.00546875 215.10442383 414.0109375 214.64306641 415.046875 C203.47529068 440.01424847 191.32196551 464.46049213 177.63574219 488.14306641 C175.32370781 492.18118974 173.07612767 496.25413782 170.82275391 500.32519531 C164.09718307 512.45547593 157.06824339 524.36475131 149.76220703 536.15380859 C148.01941591 538.9686408 146.28853528 541.79053855 144.55859375 544.61328125 C135.07350785 560.01338673 125.06395375 575.04556838 114.98318481 590.05915833 C112.15169342 594.27711697 109.33342514 598.50337149 106.52734375 602.73828125 C98.7254509 614.51113632 90.78333287 626.16717493 82.62744141 637.69775391 C81.05339182 639.92446972 79.48480361 642.15492219 77.91796875 644.38671875 C63.02759347 665.57724141 47.77886582 686.51065212 32.04077148 707.07983398 C27.40079353 713.14672145 22.81546064 719.25191852 18.25 725.375 C12.45505849 733.1334856 6.48857433 740.72841101 0.39990234 748.25732422 C-1.90694852 751.12901962 -4.17028054 754.03449292 -6.4375 756.9375 C-12.0326201 764.08636849 -17.75681063 771.12732989 -23.50146484 778.15625 C-24.88308244 779.85614835 -26.25112367 781.56574484 -27.61328125 783.28125 C-36.97972663 794.99324221 -36.97972663 794.99324221 -43 797 C-44.93385473 797.14510887 -46.8734296 797.22073101 -48.8125 797.25 C-49.82957031 797.27578125 -50.84664063 797.3015625 -51.89453125 797.328125 C-58.34809325 796.6462392 -61.98067485 793.39074325 -66.1875 788.6875 C-66.65816895 788.16188477 -67.12883789 787.63626953 -67.61376953 787.09472656 C-72.00035617 782.1319172 -76.0752718 776.93649094 -80.12109375 771.6953125 C-83.15246206 767.77704645 -86.29401683 763.95342818 -89.4375 760.125 C-94.25401725 754.23680589 -98.88409565 748.23730706 -103.41870117 742.13012695 C-107.12975796 737.13793673 -110.91961948 732.213624 -114.75 727.3125 C-126.01635748 712.87463939 -137.12736362 698.34155991 -147.79296875 683.453125 C-151.12564414 678.80726684 -154.53124755 674.21702104 -157.9375 669.625 C-164.44822086 660.82829271 -170.73326291 651.88434101 -176.97412109 642.89501953 C-178.52001709 640.68590472 -180.07520098 638.48484734 -181.63916016 636.28857422 C-189.34596486 625.45439863 -196.77668304 614.45473225 -204.125 603.375 C-205.2380582 601.70037256 -206.35133899 600.02589304 -207.46484375 598.3515625 C-209.63003089 595.09538913 -211.79370837 591.83822071 -213.95629883 588.58032227 C-216.33813379 584.99349546 -218.72762705 581.41187256 -221.12046814 577.8323822 C-248.40395765 537.00337879 -273.09220176 494.4546253 -295.55615234 450.79980469 C-296.48912441 448.9906529 -297.42663943 447.18383345 -298.36962891 445.37988281 C-316.79777559 410.11141078 -332.19267566 371.95540665 -340.8125 333.0625 C-341.0074707 332.18835449 -341.20244141 331.31420898 -341.40332031 330.41357422 C-344.21639432 317.06015502 -345.38852263 303.82685343 -345.3125 290.1875 C-345.31034485 289.4800061 -345.3081897 288.77251221 -345.30596924 288.0435791 C-344.91766557 207.61309565 -309.9181831 133.53611468 -253.38574219 77.39697266 C-246.29286809 70.52532325 -238.65861909 64.34002866 -230.80322266 58.37060547 C-229.61202604 57.46519283 -228.42412116 56.55543112 -227.23974609 55.64111328 C-189.65639172 26.67387068 -144.61927776 8.07368596 -98 0 C-96.66219482 -0.24556641 -96.66219482 -0.24556641 -95.29736328 -0.49609375 C-64.94521031 -5.8722848 -30.28998919 -5.61346899 0 0 Z M-195 81 C-195.64533691 81.46132324 -196.29067383 81.92264648 -196.95556641 82.39794922 C-215.9682868 96.09508591 -233.53639598 111.49769329 -248 130 C-248.88007691 131.09100167 -249.76165767 132.1807915 -250.64453125 133.26953125 C-289.26713323 181.16672916 -311.82831276 246.42070942 -305.53515625 308.2578125 C-299.1614679 359.41999297 -274.57705737 410.01059125 -249.40185547 454.49755859 C-247.95887924 457.07340435 -246.55467644 459.66715893 -245.16015625 462.26953125 C-225.18513277 499.51979467 -202.28199263 535.09013301 -178.875 570.25 C-178.36952637 571.0096405 -177.86405273 571.76928101 -177.34326172 572.55194092 C-168.09821028 586.43790909 -158.69357896 600.20979519 -149.125 613.875 C-148.54113525 614.7088623 -147.95727051 615.54272461 -147.35571289 616.40185547 C-141.84386423 624.25429118 -136.23310406 632.03285291 -130.59570312 639.79541016 C-129.00930343 641.98714657 -127.43286229 644.18569808 -125.859375 646.38671875 C-119.39686271 655.41326026 -112.77101443 664.2954708 -106.0168457 673.10595703 C-101.56716881 678.91758395 -97.19552553 684.7793702 -92.875 690.6875 C-86.10047079 699.93755991 -79.08569476 708.98708163 -72 718 C-71.02070687 719.24859874 -70.04153403 720.49729183 -69.0625 721.74609375 C-66.83617916 724.58395125 -64.60629671 727.41898364 -62.375 730.25292969 C-59.85202989 733.45860691 -57.33253543 736.66701567 -54.8125 739.875 C-53.88152415 741.05990663 -52.95053591 742.24480352 -52.01953125 743.4296875 C-51.35308594 744.27789063 -50.68664062 745.12609375 -50 746 C-46.01013355 744.67004452 -44.44435844 742.04994952 -42 738.8125 C-41.01192774 737.52848499 -40.02364051 736.24463537 -39.03515625 734.9609375 C-38.53129395 734.3019043 -38.02743164 733.64287109 -37.50830078 732.96386719 C-35.18005254 729.93239603 -32.80674954 726.93694544 -30.4375 723.9375 C-25.7505766 717.97710802 -21.10719498 711.98403944 -16.50048828 705.96142578 C-15.41107052 704.53734796 -14.32078739 703.11393201 -13.22998047 701.69091797 C-4.27012412 689.9987039 4.57327684 678.23056214 13.27783203 666.34716797 C15.02290613 663.96878089 16.77407617 661.59500866 18.52734375 659.22265625 C31.98227649 641.01652004 45.1385471 622.63100843 58 604 C58.40375854 603.41624603 58.80751709 602.83249207 59.22351074 602.23104858 C66.0690078 592.33108158 72.80946737 582.36492505 79.47949219 572.34594727 C80.99762554 570.06606589 82.51822477 567.78784363 84.0390625 565.50976562 C100.74794397 540.45317476 116.87898228 515.050028 132 489 C132.6305127 487.91702637 133.26102539 486.83405273 133.91064453 485.71826172 C143.40730386 469.37565896 152.44788142 452.86193231 161 436 C161.37527832 435.26458984 161.75055664 434.52917969 162.13720703 433.77148438 C164.09519588 429.93214394 166.01776066 426.0771849 167.91308594 422.20654297 C168.69892465 420.61121272 169.49218947 419.01953323 170.29003906 417.43017578 C203.542778 351.14422606 219.28066341 284.39042145 195.375 212 C188.76509381 192.30162271 180.25892405 173.48449776 169 156 C168.35877197 155.00395752 168.35877197 155.00395752 167.70458984 153.98779297 C157.59537615 138.47001886 145.80009647 124.35722799 133 111 C132.22011719 110.17886719 131.44023438 109.35773438 130.63671875 108.51171875 C125.62980526 103.36251287 120.30777352 98.74050667 114.66064453 94.30566406 C113.48339853 93.38006694 112.31030101 92.44918238 111.14013672 91.51464844 C100.59086894 83.10322048 89.74141221 75.65034357 78 69 C77.18547363 68.53851563 76.37094727 68.07703125 75.53173828 67.6015625 C52.24282337 54.57380558 27.43538006 45.58152336 1.3125 40.25 C0.34006348 40.05116211 -0.63237305 39.85232422 -1.63427734 39.64746094 C-17.36291283 36.60152356 -32.82162038 35.58990001 -48.8125 35.625 C-50.22023178 35.62581573 -50.22023178 35.62581573 -51.65640259 35.62664795 C-102.53559094 35.76152444 -153.46740425 51.23406344 -195 81 Z " fill="#FFFFFF" transform="translate(449,3)"/>
<path d="M0 0 C0.71929687 0.16628906 1.43859375 0.33257812 2.1796875 0.50390625 C41.28804485 9.63821117 76.10171651 34.85339446 97.59130859 68.70458984 C119.62727406 104.61137447 127.31941209 146.53750478 118.38183594 187.85791016 C111.41082413 216.48776433 98.20910752 240.62944952 78 262 C77.14277344 262.93328125 76.28554688 263.8665625 75.40234375 264.828125 C48.67817058 293.27098512 9.53370846 308.79671478 -29.1171875 310.22265625 C-71.97948321 311.21524868 -111.80845031 296.56997066 -143 267 C-143.94617188 266.11828125 -144.89234375 265.2365625 -145.8671875 264.328125 C-173.74985351 237.81815812 -190.39228866 199.39019817 -192 161 C-192.05285156 159.86046875 -192.10570312 158.7209375 -192.16015625 157.546875 C-192.76681567 131.90892053 -187.25708968 106.99397009 -176 84 C-175.70399902 83.37963867 -175.40799805 82.75927734 -175.10302734 82.12011719 C-158.06924845 46.72740317 -126.30594168 20.0142574 -90 6 C-88.87851562 5.55914062 -87.75703125 5.11828125 -86.6015625 4.6640625 C-60.06275543 -5.00239041 -27.48851488 -6.8451792 0 0 Z M-118 70 C-118.66515625 70.58910156 -119.3303125 71.17820313 -120.015625 71.78515625 C-140.21103632 90.46180696 -151.2399089 119.73687462 -152.9140625 146.76953125 C-154.09225253 177.34891788 -144.40882031 207.05348049 -124 230 C-123.31550781 230.82757813 -122.63101563 231.65515625 -121.92578125 232.5078125 C-102.39419257 255.5413681 -72.73094876 268.50615429 -43 271 C-9.99989651 272.80632145 20.98967846 261.16917128 45.56640625 239.24609375 C68.49228605 218.06352938 81.32051309 188.36186618 82.87451172 157.46166992 C83.97683412 125.61576266 72.1627947 95.9206447 50.83984375 72.4765625 C30.58762432 50.97577041 2.01082843 36.71398702 -27.66796875 35.71875 C-63.08435542 35.0292232 -92.05904495 45.58242318 -118 70 Z " fill="#FFFFFF" transform="translate(435,149)"/>
<path d="M0 0 C5.30076899 3.91247235 9.25292385 8.35153447 10.625 14.9375 C11.68748797 24.32281044 6.40672432 31.74743394 1.0625 39 C-0.01399655 40.49148375 -1.08949537 41.98368806 -2.1640625 43.4765625 C-2.70321289 44.22196289 -3.24236328 44.96736328 -3.79785156 45.73535156 C-6.1915633 49.07765495 -8.50073305 52.47576768 -10.8125 55.875 C-16.34728068 63.97504695 -22.1004857 71.91123311 -27.86425781 79.84912109 C-30.03156041 82.84509821 -32.17163379 85.86011245 -34.3125 88.875 C-39.96375788 96.81452566 -45.76666794 104.64186001 -51.56054688 112.47753906 C-53.34339055 114.8946452 -55.11829585 117.31736399 -56.890625 119.7421875 C-62.81385554 127.83981045 -68.78838537 135.89929615 -74.875 143.875 C-75.43832031 144.626604 -76.00164062 145.37820801 -76.58203125 146.15258789 C-80.53988313 151.2905928 -84.08373463 154.84041154 -90.375 156.9375 C-97.25758621 157.68321538 -102.67204312 156.98926669 -108.375 152.9375 C-113.04623094 148.77401155 -114.4280425 144.90858878 -115.26953125 138.7265625 C-115.61064189 129.70608119 -110.29532194 123.6692631 -104.92382812 116.90332031 C-101.71270612 112.82766545 -98.58230055 108.68938678 -95.4375 104.5625 C-94.38743774 103.18747314 -94.38743774 103.18747314 -93.31616211 101.78466797 C-89.14610824 96.3108316 -85.05704623 90.79531892 -81.09301758 85.17089844 C-77.67705156 80.32955004 -74.15515639 75.57101953 -70.625 70.8125 C-63.96360692 61.81210921 -57.52613102 52.66691019 -51.13818359 43.47119141 C-49.35430718 40.90776446 -47.56323961 38.34952416 -45.76953125 35.79296875 C-45.1758374 34.94661865 -44.58214355 34.10026855 -43.97045898 33.22827148 C-42.79208253 31.54904874 -41.61321747 29.87016876 -40.43383789 28.19165039 C-37.66263497 24.23924039 -34.91633769 20.27398399 -32.2265625 16.265625 C-31.73309326 15.53375977 -31.23962402 14.80189453 -30.73120117 14.04785156 C-29.81824791 12.68981198 -28.91162264 11.3274856 -28.01293945 9.95996094 C-21.07430722 -0.34447689 -12.01017208 -3.7809801 0 0 Z " fill="#FFFFFF" transform="translate(495.375,541.0625)"/>
</svg>
