<?xml version="1.0" encoding="UTF-8"?>
<!DOCTYPE svg PUBLIC "-//W3C//DTD SVG 1.1//EN" "http://www.w3.org/Graphics/SVG/1.1/DTD/svg11.dtd">
<svg xmlns="http://www.w3.org/2000/svg" version="1.1" width="800px" height="800px" style="shape-rendering:geometricPrecision; text-rendering:geometricPrecision; image-rendering:optimizeQuality; fill-rule:evenodd; clip-rule:evenodd" xmlns:xlink="http://www.w3.org/1999/xlink">
<g><path style="opacity:1" fill="#fefffe" d="M -0.5,138.5 C 266.167,138.5 532.833,138.5 799.5,138.5C 799.5,147.5 799.5,156.5 799.5,165.5C 666.436,258.566 533.103,351.232 399.5,443.5C 265.897,351.232 132.564,258.566 -0.5,165.5C -0.5,156.5 -0.5,147.5 -0.5,138.5 Z"/></g>
<g><path style="opacity:1" fill="#fefffe" d="M -0.5,218.5 C 133.164,311.001 266.498,404.001 399.5,497.5C 532.502,404.001 665.836,311.001 799.5,218.5C 799.5,365.833 799.5,513.167 799.5,660.5C 532.833,660.5 266.167,660.5 -0.5,660.5C -0.5,513.167 -0.5,365.833 -0.5,218.5 Z"/></g>
</svg>
