<?xml version="1.0" encoding="UTF-8"?>
<svg version="1.1" xmlns="http://www.w3.org/2000/svg" width="1525" height="1600">
<path d="M0 0 C3.54724359 -0.0021743 7.09416897 -0.02036403 10.64135742 -0.03930664 C39.4651097 -0.10988237 67.77209727 2.33318352 95.8972168 8.68530273 C96.89040421 8.90952408 96.89040421 8.90952408 97.90365601 9.13827515 C104.77102199 10.7007743 111.57375207 12.36394523 118.29956055 14.45678711 C120.74696387 15.21625586 123.20569086 15.92257193 125.6706543 16.62280273 C165.54950803 28.15331775 204.63687052 46.27249517 238.6472168 70.18530273 C239.95541931 71.08300855 241.26404714 71.98009475 242.57299805 72.87670898 C252.04875706 79.41534036 261.05640081 86.38521017 269.90454102 93.74682617 C271.41958339 94.99740472 272.95550667 96.22260253 274.49487305 97.44311523 C290.72912682 110.32277961 306.26162047 125.35562725 319.6472168 141.18530273 C320.9137207 142.6180957 320.9137207 142.6180957 322.20581055 144.07983398 C342.61583775 167.25520275 359.87254407 193.11087532 374.6472168 220.18530273 C375.08227539 220.97179199 375.51733398 221.75828125 375.96557617 222.56860352 C386.30268919 241.29973381 394.73430325 260.94607113 401.6472168 281.18530273 C402.00170898 282.22283691 402.35620117 283.26037109 402.72143555 284.3293457 C411.93179087 311.55569042 418.12841762 338.6879238 421.6472168 367.18530273 C421.78865616 368.30678711 421.78865616 368.30678711 421.93295288 369.45092773 C423.77201784 384.50574446 423.99118632 399.51225505 423.96289062 414.66577148 C423.95599844 418.65162973 423.98324069 422.63701826 424.00854492 426.62280273 C424.06996797 450.83468686 421.97332494 474.65674672 417.3972168 498.43530273 C417.24726257 499.23126862 417.09730835 500.0272345 416.94281006 500.84732056 C414.29009951 514.87472188 410.94701046 528.56483834 406.6472168 542.18530273 C406.3255957 543.23588867 406.00397461 544.28647461 405.67260742 545.36889648 C399.97216407 563.91463288 392.73869143 581.58080859 384.6472168 599.18530273 C384.00381348 600.58619141 384.00381348 600.58619141 383.34741211 602.01538086 C372.80646857 624.65121538 359.46800114 646.12536878 344.6472168 666.18530273 C344.18621582 666.81065918 343.72521484 667.43601562 343.25024414 668.08032227 C334.23175076 680.23159084 324.3292234 691.59964627 314.03979492 702.67944336 C312.60427591 704.23173671 311.17911779 705.79297351 309.7565918 707.35717773 C303.10866081 714.66527502 296.42220071 721.73819565 288.92456055 728.18530273 C286.74934578 730.09561142 284.63204916 732.05924643 282.51928711 734.03808594 C276.08413587 740.04401721 269.33719767 745.52078226 262.35131836 750.87084961 C260.75765475 752.10011678 259.18215535 753.35283242 257.6081543 754.60717773 C251.03425931 759.80514121 244.23734339 764.58662695 237.2722168 769.24780273 C236.44713623 769.80121338 235.62205566 770.35462402 234.77197266 770.92480469 C222.17128385 779.26796033 209.15374246 786.73312199 195.7097168 793.62280273 C194.992565 793.99069916 194.27541321 794.35859558 193.53652954 794.73764038 C164.38957266 809.6388908 133.01092332 821.70566993 100.94360352 828.66870117 C98.52977266 829.2117233 96.13997603 829.82294211 93.74487305 830.44311523 C34.17163355 845.29343297 -35.02632893 842.83394897 -94.3527832 828.18530273 C-95.86970783 827.82461531 -97.3866348 827.46393775 -98.90356445 827.10327148 C-123.17096729 821.17396989 -146.60381878 812.41989545 -169.3527832 802.18530273 C-170.26817871 801.77844238 -171.18357422 801.37158203 -172.12670898 800.95239258 C-186.80719606 794.38742279 -200.6142665 786.52358566 -214.3527832 778.18530273 C-215.64128174 777.40751465 -215.64128174 777.40751465 -216.95581055 776.61401367 C-233.29850855 766.70054146 -248.7808984 755.56288325 -263.3527832 743.18530273 C-264.49328231 742.23072522 -265.63391591 741.27630838 -266.7746582 740.32202148 C-273.19605453 734.91689899 -279.31718446 729.37420145 -285.1809082 723.35717773 C-287.06648394 721.471602 -288.98351668 719.75303979 -291.0402832 718.06030273 C-294.23806749 715.40046347 -296.85678867 712.41012146 -299.54418945 709.24389648 C-301.35563418 707.18205767 -303.25659689 705.28153562 -305.2277832 703.37280273 C-309.1196073 699.53326802 -312.53387187 695.40964935 -315.95043945 691.14624023 C-318.00139847 688.61839156 -320.1051199 686.1509172 -322.24169922 683.69555664 C-363.28665015 636.26747164 -393.13372676 573.60905277 -405.91479492 512.25463867 C-406.30200148 510.42522797 -406.73240103 508.60507543 -407.16918945 506.78686523 C-410.16036202 494.10178788 -411.73072608 481.10221812 -413.3527832 468.18530273 C-413.47572754 467.21351074 -413.59867187 466.24171875 -413.7253418 465.24047852 C-417.71665498 431.77668831 -416.83723418 396.54586677 -412.3527832 363.18530273 C-412.2148938 362.15729553 -412.2148938 362.15729553 -412.07421875 361.10852051 C-411.39504197 356.08621705 -410.67061986 351.07168929 -409.9152832 346.06030273 C-409.62584839 344.13057617 -409.62584839 344.13057617 -409.33056641 342.16186523 C-408.15867109 334.85435985 -406.526888 327.86812628 -404.39990234 320.78149414 C-403.28973256 316.96876369 -402.33836061 313.13820858 -401.4074707 309.27905273 C-399.45144001 301.2959421 -397.07922326 293.48126194 -394.4777832 285.68530273 C-394.24523834 284.98653015 -394.01269348 284.28775757 -393.77310181 283.56781006 C-372.99128721 221.59276975 -337.17895771 167.18476267 -291.30969238 120.96697998 C-290.31392885 119.96317642 -289.31965027 118.95789711 -288.32702637 117.95098877 C-282.48125912 112.03004677 -276.46943945 106.48857982 -269.96020508 101.29638672 C-267.48699105 99.29396333 -265.11999631 97.21688171 -262.76293945 95.07983398 C-258.29850117 91.07145646 -253.60728802 87.44539087 -248.7902832 83.87280273 C-247.91968262 83.22472656 -247.04908203 82.57665039 -246.15209961 81.90893555 C-174.26336622 28.67262722 -89.36859425 -0.006099 0 0 Z " fill="#FEFEFE" transform="translate(758.352783203125,380.814697265625)"/>
<path d="M0 0 C1.45986328 0.10828125 1.45986328 0.10828125 2.94921875 0.21875 C16.42923649 1.91096335 24.62658931 11.02962634 32.58300781 21.15478516 C36.07525776 25.70241182 39.38160606 30.37047775 42.65332031 35.078125 C45.16616471 38.66425826 47.74360954 42.20391777 50.3125 45.75 C51.42328693 47.28637892 52.5339632 48.82283786 53.64453125 50.359375 C54.19963379 51.12701172 54.75473633 51.89464844 55.32666016 52.68554688 C58.05263139 56.45593019 60.77621534 60.22803694 63.5 64 C64.58332144 65.50000859 65.66665479 67.00000858 66.75 68.5 C73.25 77.5 73.25 77.5 74.87475586 79.74975586 C75.95878416 81.2506555 77.04293142 82.75146922 78.12719727 84.25219727 C80.82587655 87.98773967 83.52251312 91.72472254 86.21484375 95.46484375 C91.76804624 103.17462973 97.35437205 110.85757631 103 118.5 C110.8142148 129.07801556 118.50908525 139.74051531 126.17578125 150.42578125 C127.24200995 151.90898182 128.30841675 153.39205437 129.375 154.875 C129.90182373 155.60952393 130.42864746 156.34404785 130.97143555 157.10083008 C133.88744775 161.14638561 136.85847916 165.13850542 139.90625 169.0859375 C150.94187633 183.41196565 160.578815 196.07645683 159 215 C156.45820708 227.47657211 151.55454793 236.03664836 140.9921875 243.20703125 C131.88135012 248.66639725 122.50360572 252.40520401 111.80859375 250.40234375 C92.29030349 245.07917368 82.61884089 231.16251267 71.90673828 215.22387695 C68.40613179 210.01743577 64.7941078 204.93386884 61 199.9375 C56.78319621 194.38245825 52.63775013 188.78490039 48.5625 183.125 C48.02165771 182.37395996 47.48081543 181.62291992 46.92358398 180.84912109 C45.2814834 178.56673066 43.64071167 176.283389 42 174 C34.80084303 163.99221308 27.55741782 154.02057355 20.23071289 144.10571289 C15.74183637 138.02455095 11.31009187 131.90404491 6.89453125 125.76953125 C2.96607806 120.31915915 -1.00723777 114.90339862 -5 109.5 C-13.98025892 97.34000902 -22.83685939 85.09404881 -31.5625 72.75 C-32.05121582 72.05890137 -32.53993164 71.36780273 -33.04345703 70.65576172 C-33.95336052 69.36448058 -34.86010789 68.07096778 -35.76318359 66.77490234 C-36.90003177 65.14346014 -38.04905309 63.52051838 -39.19921875 61.8984375 C-44.958312 52.62892082 -46.67849981 41.48724071 -44.3046875 30.8984375 C-40.4745681 18.18501595 -33.6146412 10.33719124 -22.40234375 3.390625 C-14.98051118 -0.5006451 -8.24297993 -0.67827949 0 0 Z " fill="#FFFFFF" transform="translate(321,146)"/>
<path d="M0 0 C0.8559375 -0.02900391 1.711875 -0.05800781 2.59375 -0.08789062 C13.39640974 -0.19428046 21.45564665 4.83135494 29.12890625 12.08984375 C37.21945535 20.63472174 40.60136608 30.58493533 40.4609375 42.15625 C39.70660291 53.44333048 33.91720033 63.82020754 25.61645508 71.39550781 C14.81756352 80.14335642 -0.27388129 83.30268777 -13.25 87.4375 C-16.75817841 88.56657139 -20.26532232 89.69881776 -23.77244568 90.8311615 C-26.11059009 91.5857676 -28.44910065 92.33924018 -30.78797913 93.09156799 C-40.03738026 96.06928724 -49.25299346 99.14012303 -58.45922852 102.24822998 C-68.00294959 105.46807255 -77.53218561 108.64990955 -87.25 111.3125 C-96.2934632 113.79103108 -105.17507489 116.70719759 -114.0625 119.6875 C-114.80361023 119.93586609 -115.54472046 120.18423218 -116.30828857 120.44012451 C-123.13013464 122.72832306 -129.94776881 125.02900357 -136.76519775 127.33032227 C-143.22868203 129.51176544 -149.69401804 131.6875817 -156.16146851 133.85723877 C-159.31931676 134.91878151 -162.47471878 135.98738255 -165.63012695 137.05615234 C-167.59964694 137.71749536 -169.56928669 138.37848185 -171.5390625 139.0390625 C-172.42314285 139.3406427 -173.30722321 139.6422229 -174.21809387 139.95294189 C-189.27829817 144.97471442 -204.81759058 147.00428454 -219.75 140.3125 C-229.27202735 134.84023733 -235.70675289 125.71758965 -239.08984375 115.36328125 C-241.57608703 103.87360076 -240.0380196 93.43661383 -234.01953125 83.4375 C-225.02098055 70.21807223 -213.98872096 66.11720115 -199.375 61.25 C-197.64920919 60.65975163 -195.92394429 60.06796328 -194.19921875 59.47460938 C-184.51967616 56.16190934 -174.78664975 53.03074406 -165.02441406 49.97192383 C-154.41451451 46.6433053 -143.83497568 43.21797372 -133.25001144 39.81110001 C-131.94672411 39.39162894 -130.64341201 38.97223483 -129.34007645 38.55291367 C-113.59658175 33.4876374 -97.86268457 28.39867658 -82.1875 23.125 C-67.43679554 18.1638001 -52.63178491 13.37717742 -37.8125 8.625 C-36.6964035 8.26612701 -35.58030701 7.90725403 -34.4303894 7.5375061 C-31.25793864 6.51806973 -28.08427324 5.50251612 -24.91015625 4.48828125 C-23.95670319 4.18160522 -23.00325012 3.8749292 -22.02090454 3.55895996 C-21.13494598 3.27693726 -20.24898743 2.99491455 -19.33618164 2.7043457 C-18.18334435 2.33561089 -18.18334435 2.33561089 -17.00721741 1.95942688 C-11.30114315 0.32404484 -5.89797507 0.06543611 0 0 Z " fill="#FFFFFF" transform="translate(240.75,930.6875)"/>
<path d="M0 0 C7.96641295 5.04330395 14.87639607 13.50410274 17.9375 22.5 C18.53609743 26.45173949 18.60449807 30.32050575 18.5625 34.3125 C18.55484619 35.38113281 18.54719238 36.44976563 18.53930664 37.55078125 C18.3144628 45.50623157 17.13522196 51.26503863 11.9375 57.5 C11.40769531 58.22832031 10.87789062 58.95664062 10.33203125 59.70703125 C2.94853273 69.16001391 -8.14643411 72.98414765 -19.09204102 76.85986328 C-21.23348713 77.61914512 -23.36788055 78.39604758 -25.50195312 79.17578125 C-33.35907683 82.01640316 -41.21314175 84.40550796 -49.31176758 86.48486328 C-55.33122472 88.11403094 -61.21460239 90.12055833 -67.1164856 92.12835693 C-71.03622194 93.46106402 -74.96180906 94.77637339 -78.88671875 96.09375 C-79.71276108 96.37137177 -80.53880341 96.64899353 -81.38987732 96.93502808 C-90.94841636 100.14248951 -100.53558776 103.26130443 -110.125 106.375 C-111.01808868 106.6650592 -111.91117737 106.95511841 -112.83132935 107.25396729 C-116.47776372 108.43817159 -120.12423928 109.62224844 -123.7709198 110.80569458 C-130.25879007 112.91185155 -136.74336987 115.02792983 -143.2265625 117.1484375 C-159.13940506 122.35163587 -175.053368 127.55466236 -191.01651001 132.60192871 C-192.35183791 133.02489641 -193.68648828 133.45001083 -195.02035522 133.87756348 C-209.04360111 138.36619986 -222.90810467 142.47728782 -237.0625 136.5 C-240.22958902 134.70246299 -243.14459262 132.67389912 -246.0625 130.5 C-246.949375 129.901875 -247.83625 129.30375 -248.75 128.6875 C-256.99029714 120.89262433 -261.1592468 110.23732258 -261.5625 99 C-261.1633418 87.87679146 -257.12665352 77.36280467 -249.0625 69.56640625 C-239.98697555 62.0304797 -228.59986314 58.44572435 -217.625 54.5625 C-216.50673828 54.15837891 -215.38847656 53.75425781 -214.23632812 53.33789062 C-207.61088635 50.97829695 -200.95842788 48.83754009 -194.21484375 46.84765625 C-180.16542808 42.69847258 -166.24924712 38.12743016 -152.31632996 33.60609436 C-150.03733413 32.86683673 -147.75803434 32.1285237 -145.4786377 31.39050293 C-127.87246238 25.68960937 -110.27993864 19.95294471 -92.73937988 14.05264282 C-78.81613113 9.37182413 -64.81529187 4.95568409 -50.77001953 0.65478516 C-48.13113878 -0.16714991 -45.50564309 -1.00888721 -42.88232422 -1.87744141 C-27.76372903 -6.84237874 -14.44167607 -7.65209789 0 0 Z " fill="#FFFFFF" transform="translate(1507.0625,530.5)"/>
<path d="M0 0 C2.16340738 0.71828839 4.32765788 1.43404157 6.49267578 2.14746094 C11.14752951 3.68356393 15.79839406 5.23104866 20.44726562 6.78515625 C28.17165629 9.35875452 35.91873861 11.85846931 43.671875 14.34375 C44.33448019 14.55625397 44.99708538 14.76875793 45.67976952 14.98770142 C48.36071911 15.84750202 51.04171611 16.7071544 53.72282696 17.56645203 C73.99315428 24.06456621 94.23488996 30.64523596 114.41503906 37.41870117 C122.92517038 40.27454485 131.44996453 43.07822146 140 45.8125 C140.97235596 46.12348633 141.94471191 46.43447266 142.9465332 46.75488281 C147.23099772 48.11720477 151.52157246 49.44880566 155.83203125 50.7265625 C161.4063977 52.39172581 166.92736453 54.19657606 172.4375 56.0625 C173.41396484 56.38025391 174.39042969 56.69800781 175.39648438 57.02539062 C189.20271384 61.7259731 198.96557815 69.80151145 205.74609375 82.734375 C209.57779057 91.27282743 209.24069795 103.42786514 206.3125 112.25 C203.99987111 117.60556165 200.81211091 121.97334359 196.875 126.25 C196.27816406 126.90097656 195.68132812 127.55195312 195.06640625 128.22265625 C187.24561911 135.88084906 177.97088762 137.59425249 167.375 137.875 C166.26656738 137.92805298 166.26656738 137.92805298 165.13574219 137.98217773 C155.3865195 137.95892679 146.04791199 134.21036959 136.875 131.25 C135.31959288 130.75442436 133.76409517 130.25913293 132.20849609 129.76416016 C127.56959617 128.28039414 122.9408171 126.76638958 118.3125 125.25 C116.57103877 124.68141018 114.82950005 124.11305761 113.08789062 123.54492188 C109.46954967 122.36431814 105.85159114 121.18255272 102.23388672 120 C97.14854498 118.33839482 92.06097184 116.68372253 86.97265625 115.03125 C70.43425235 109.65848585 53.90341744 104.26317986 37.3828125 98.8359375 C35.93552776 98.36057162 34.48824179 97.88520948 33.04095459 97.40985107 C26.57941226 95.28738882 20.11812031 93.16417526 13.65783882 91.03787804 C10.95664918 90.1490746 8.25513483 89.261261 5.55355453 88.37364578 C3.704614 87.76579278 1.85609769 87.15664981 0.00759888 86.54745483 C-7.67635522 84.02368346 -15.38737786 81.60382834 -23.125 79.25 C-58.36163435 68.48347792 -58.36163435 68.48347792 -66.63671875 53.515625 C-71.86021785 42.67948359 -74.03299149 32.41147447 -70.16015625 20.79296875 C-65.23651971 8.69754466 -57.63553356 0.99621994 -45.95703125 -4.62109375 C-30.41248208 -10.81747266 -14.88013547 -5.07678318 0 0 Z " fill="#FFFFFF" transform="translate(72.125,532.75)"/>
<path d="M0 0 C10.8146364 7.29076611 18.01400244 17.96798741 25.40234375 28.48828125 C28.52206333 32.918306 31.74537546 37.2701138 34.96875 41.625 C41.22277066 50.08687048 47.40009997 58.60148236 53.54736328 67.14111328 C56.24637128 70.88859784 58.95163884 74.63155845 61.65625 78.375 C62.73961304 79.87497854 63.82294638 81.37497854 64.90625 82.875 C65.4425 83.6175 65.97875 84.36 66.53125 85.125 C84.40625 109.875 84.40625 109.875 86.03100586 112.12475586 C87.11503416 113.6256555 88.19918142 115.12646922 89.28344727 116.62719727 C91.98212655 120.36273967 94.67876312 124.09972254 97.37109375 127.83984375 C102.32379681 134.71546702 107.29336734 141.57577212 112.34008789 148.3828125 C144.88567088 192.31459207 144.88567088 192.31459207 143.15625 210.375 C140.6042369 222.61549395 133.34792964 232.228582 123.15625 239.375 C116.15104626 243.5210121 109.74169069 244.01951443 101.71875 243.9375 C100.65076172 243.96134766 99.58277344 243.98519531 98.48242188 244.00976562 C88.93330647 243.99226572 82.05143871 241.19816782 74.96875 234.8125 C63.85025791 223.00768124 54.84756644 209.01622422 45.40234375 195.87109375 C42.02412695 191.17815591 38.59342466 186.52484929 35.15625 181.875 C28.96585133 173.49573108 22.85150391 165.0639222 16.76513672 156.60888672 C14.06612882 152.86140231 11.36093506 149.11838799 8.65625 145.375 C5.41493547 140.88889621 2.17483046 136.40195169 -1.05859375 131.91015625 C-7.26050913 123.29988525 -13.51682905 114.73296298 -19.82397461 106.19946289 C-23.60507133 101.07660162 -27.33449515 95.92151839 -31.01196289 90.72387695 C-33.39611477 87.3658687 -35.82460546 84.04572042 -38.2890625 80.74609375 C-63.71673528 46.69105373 -63.71673528 46.69105373 -61.84375 28.375 C-58.66887836 16.72885871 -51.39425748 5.51131767 -40.84375 -0.625 C-27.3014681 -7.56402048 -13.42994126 -7.67425215 0 0 Z " fill="#FFFFFF" transform="translate(1107.84375,1209.625)"/>
<path d="M0 0 C11.9503088 4.03815597 23.97157639 7.85033157 35.99128723 11.67584229 C51.11430458 16.49335957 66.21120101 21.37097404 81.25282288 26.43685913 C97.97323334 32.06292146 114.78290779 37.41021148 131.59602356 42.75177002 C141.6206757 45.9430251 151.62728629 49.1725871 161.56550598 52.62506104 C162.36851135 52.90227493 163.17151672 53.17948883 163.99885559 53.46510315 C177.33260277 58.15538982 186.31763366 64.54170555 193.85603333 76.57940674 C196.56486944 82.35746889 196.41794677 88.01880578 196.30378723 94.30084229 C196.35696106 96.16289307 196.35696106 96.16289307 196.41120911 98.06256104 C196.36019451 108.82097241 192.386291 114.64448881 185.05622864 122.17364502 C176.50949856 130.460679 167.20196918 134.23518882 155.39532471 134.23899841 C149.71780207 134.07552073 144.72617238 133.05973921 139.30378723 131.41802979 C137.97046104 131.02542717 137.97046104 131.02542717 136.61019897 130.62489319 C123.50561499 126.71637775 110.51081418 122.44182865 97.50914001 118.2062645 C93.75925928 116.98554249 90.00797372 115.76915077 86.25691223 114.55206299 C65.63083687 107.85679708 45.01676824 101.12453107 24.40901184 94.37310791 C13.7385626 90.87794319 3.06207143 87.40520488 -7.63371277 83.98834229 C-17.54622296 80.81085874 -27.44918767 77.60414191 -37.33586121 74.34713745 C-38.92384925 73.8252288 -40.51269051 73.30590751 -42.10246277 72.78945923 C-70.19723271 63.65392342 -70.19723271 63.65392342 -78.30168152 49.98834229 C-84.03629149 37.88007489 -85.14962535 27.70169213 -80.88761902 14.94537354 C-76.35995595 3.59095369 -67.76593509 -4.40078603 -56.63371277 -9.19915771 C-38.34926696 -15.29397298 -17.09834052 -5.78792518 0 0 Z " fill="#FFFFFF" transform="translate(1329.6337127685547,940.1991577148438)"/>
<path d="M0 0 C2.00801025 1.44592244 3.82458372 2.97367183 5.6484375 4.64453125 C6.26332031 5.16917969 6.87820313 5.69382812 7.51171875 6.234375 C14.90960918 12.96693053 18.43414364 21.27316677 18.921875 31.15625 C18.96153332 32.88138676 18.99521597 34.6066695 19.0234375 36.33203125 C19.07951172 37.60336914 19.07951172 37.60336914 19.13671875 38.90039062 C19.28311018 49.59509762 13.38409624 57.47982558 7.4609375 65.95703125 C6.89141357 66.78098389 6.32188965 67.60493652 5.73510742 68.45385742 C1.66815834 74.29479158 -2.58064069 79.95705228 -6.96875 85.55859375 C-10.78696677 90.50349743 -14.3658867 95.61409122 -17.97705078 100.7109375 C-25.57687503 111.40198689 -33.32430795 121.98545302 -41.11791992 132.53564453 C-46.71541765 140.12055273 -52.23541106 147.76008433 -57.74267578 155.41064453 C-60.44168378 159.15812909 -63.14695134 162.9010897 -65.8515625 166.64453125 C-66.93492554 168.14450979 -68.01825888 169.64450979 -69.1015625 171.14453125 C-71.26822917 174.14453125 -73.43489583 177.14453125 -75.6015625 180.14453125 C-76.13773193 180.88703125 -76.67390137 181.62953125 -77.22631836 182.39453125 C-78.31003772 183.89484034 -79.39418512 185.39484033 -80.47875977 186.89453125 C-83.18477716 190.63738827 -85.88320565 194.38527665 -88.56640625 198.14453125 C-95.76150079 208.20458162 -103.1569697 218.08833952 -110.85986328 227.7668457 C-111.80273974 228.95369723 -112.73493122 230.1491873 -113.65185547 231.35620117 C-116.51291142 235.018467 -119.42910614 237.21013505 -123.4765625 239.45703125 C-124.51039063 240.04097656 -125.54421875 240.62492187 -126.609375 241.2265625 C-131.97479259 244.00098784 -136.56818916 243.86197823 -142.4765625 243.89453125 C-143.84554687 243.92546875 -143.84554687 243.92546875 -145.2421875 243.95703125 C-155.35691848 244.01466504 -163.56061727 241.16552387 -171.3515625 234.64453125 C-174.06367353 231.85073013 -176.24591177 228.91534355 -178.3515625 225.64453125 C-178.86074219 224.87882812 -179.36992187 224.113125 -179.89453125 223.32421875 C-185.13313349 213.96223491 -184.87747062 201.82527533 -182.6875 191.51953125 C-181.77486421 189.04351068 -180.70302955 186.90915171 -179.3515625 184.64453125 C-178.91199219 183.86335938 -178.47242188 183.0821875 -178.01953125 182.27734375 C-173.26042256 174.34951205 -167.54579068 167.02505919 -162.03515625 159.61328125 C-158.580162 154.96438147 -155.17439682 150.28182339 -151.7890625 145.58203125 C-151.25716309 144.8439624 -150.72526367 144.10589355 -150.17724609 143.34545898 C-149.10471943 141.85663332 -148.03245311 140.36762009 -146.96044922 138.87841797 C-143.72010055 134.37929956 -140.47128548 129.88629006 -137.22412109 125.39208984 C-134.52558228 121.65658625 -131.82898297 117.91971645 -129.13671875 114.1796875 C-123.00399571 105.66532444 -116.81923461 97.19236923 -110.58447266 88.75244141 C-104.98724076 81.16784285 -99.46747623 73.52864795 -93.96044922 65.87841797 C-90.72318553 61.38358296 -87.47795306 56.89449418 -84.23291016 52.40527344 C-81.48116872 48.59746723 -78.73428179 44.78631667 -75.99609375 40.96875 C-69.6030438 32.06494445 -63.11593344 23.27023916 -56.3515625 14.64453125 C-55.23007812 13.1440625 -55.23007812 13.1440625 -54.0859375 11.61328125 C-41.02263549 -5.37814654 -19.21740594 -11.07714262 0 0 Z " fill="#FFFFFF" transform="translate(461.3515625,1210.35546875)"/>
<path d="M0 0 C1.26360352 -0.01740234 1.26360352 -0.01740234 2.55273438 -0.03515625 C13.37398964 0.01482645 22.0533971 3.87268891 30.0078125 11.15625 C38.75114023 20.39162648 41.58137427 31.08431736 41.33984375 43.484375 C40.22785565 59.08353194 28.67081643 71.8764116 19.80029297 83.99609375 C17.03809632 87.77733063 14.30122718 91.57675007 11.5625 95.375 C10.47796549 96.87637498 9.3933299 98.37767695 8.30859375 99.87890625 C6.15244701 102.86409108 3.99902496 105.85121388 1.84765625 108.83984375 C-4.28506679 117.35420681 -10.46982789 125.82716202 -16.70458984 134.26708984 C-22.84669634 142.59002749 -28.89540683 150.97932215 -34.9375 159.375 C-41.61976075 168.66021077 -48.32639007 177.92449699 -55.125 187.125 C-59.12244545 192.53523228 -63.09969411 197.95674599 -67 203.4375 C-67.38881348 203.98349854 -67.77762695 204.52949707 -68.17822266 205.09204102 C-68.9874246 206.22891857 -69.79650332 207.36588383 -70.60546875 208.50292969 C-71.04503906 209.12071289 -71.48460937 209.73849609 -71.9375 210.375 C-72.44667969 211.09075195 -72.95585938 211.80650391 -73.48046875 212.54394531 C-77.26134917 217.84930187 -81.07972961 223.12530264 -84.9375 228.375 C-85.35918457 228.95507812 -85.78086914 229.53515625 -86.21533203 230.1328125 C-93.45535041 240.00086944 -102.57365723 247.39111692 -114.9375 249.375 C-126.63625668 250.46579316 -136.47683986 248.58312201 -145.9375 241.375 C-147.12859375 240.48748047 -147.12859375 240.48748047 -148.34375 239.58203125 C-151.05858518 237.27196818 -152.98006128 234.94933171 -155.0625 232.0625 C-156.05636719 230.70705078 -156.05636719 230.70705078 -157.0703125 229.32421875 C-161.04347166 223.04862218 -162.47358154 217.91615305 -162.375 210.625 C-162.36670166 209.83150146 -162.35840332 209.03800293 -162.34985352 208.22045898 C-161.88414575 191.9538338 -151.60598095 180.10854492 -142.17578125 167.67578125 C-138.88710571 163.32900145 -135.68405087 158.92378608 -132.5 154.5 C-131.96036621 153.75032959 -131.42073242 153.00065918 -130.86474609 152.22827148 C-129.7689874 150.70486388 -128.67361045 149.18118163 -127.57861328 147.65722656 C-124.87110468 143.8920093 -122.15385203 140.13383948 -119.4375 136.375 C-118.35411912 134.87503434 -117.2707858 133.37503433 -116.1875 131.875 C-114.02083333 128.875 -111.85416667 125.875 -109.6875 122.875 C-109.15133057 122.13258057 -108.61516113 121.39016113 -108.06274414 120.62524414 C-106.97871584 119.1243445 -105.89456858 117.62353078 -104.81030273 116.12280273 C-102.11162345 112.38726033 -99.41498688 108.65027746 -96.72265625 104.91015625 C-91.10846822 97.11584153 -85.45864617 89.350464 -79.75 81.625 C-74.93355784 75.10631921 -70.17727065 68.5505172 -65.48046875 61.9453125 C-60.91340035 55.52428565 -56.295657 49.13989384 -51.66699219 42.76318359 C-50.49776308 41.14864391 -49.33183106 39.53171218 -48.16894531 37.91259766 C-20.73441429 -0.2842494 -20.73441429 -0.2842494 0 0 Z " fill="#FFFFFF" transform="translate(1207.9375,145.625)"/>
<path d="M0 0 C12.41174157 10.32161461 17.08314645 21.16140869 18.57639146 37.01789546 C19.12673064 44.29179318 19.01708528 51.59354409 18.99291992 58.88305664 C18.9939957 60.79208949 18.99593876 62.70112201 18.99867249 64.6101532 C19.00347641 69.74644567 18.99592127 74.88264983 18.98571944 80.01893163 C18.97686351 85.42240483 18.97869785 90.82587588 18.9790802 96.22935486 C18.97814683 105.29818172 18.96950728 114.36697491 18.95581055 123.43579102 C18.94008386 133.88658401 18.93481284 144.3373402 18.9355461 154.78814417 C18.93622415 165.9656442 18.9292696 177.14313024 18.9200995 188.32062602 C18.91797914 191.51948205 18.91725982 194.71833579 18.91686058 197.91719246 C18.91584806 202.96277373 18.90967814 208.00832472 18.89969444 213.05389595 C18.89680068 214.89398513 18.89553764 216.7340778 18.89612198 218.57416916 C18.90404716 258.76064899 18.90404716 258.76064899 5.75 272.3125 C-3.18920354 280.82844579 -12.72855777 283.99124798 -24.90454102 283.84912109 C-36.84608136 283.30844245 -45.19340585 277.88517492 -53.25 269.3125 C-59.70749231 261.94399217 -61.52654119 255.4673479 -61.86096191 245.78991699 C-61.89841601 244.86730812 -61.9358701 243.94469924 -61.97445917 242.99413252 C-62.3556515 232.88937425 -62.43566445 222.78466028 -62.47460938 212.67382812 C-62.48582491 210.60317834 -62.49733923 208.53253016 -62.50912476 206.46188354 C-62.54515527 199.75586331 -62.57080239 193.04982645 -62.59375 186.34375 C-62.59769587 185.19640318 -62.60164173 184.04905636 -62.60570717 182.86694145 C-62.64204391 172.02370892 -62.6734209 161.18046917 -62.69481659 150.33719635 C-62.72245819 136.54421088 -62.77348173 122.75173521 -62.85529089 108.95896196 C-62.91113154 99.21149987 -62.9400573 89.46417625 -62.9492898 79.71655989 C-62.95552733 73.9129984 -62.97348033 68.11004097 -63.02067566 62.30665588 C-63.06447387 56.85612353 -63.07478976 51.40652344 -63.06004715 45.95584488 C-63.06037445 43.96490171 -63.07254433 41.973917 -63.09789658 39.98313522 C-63.25901691 26.61979374 -62.1843147 17.00179598 -52.83202362 6.63126373 C-38.56953513 -7.54789494 -17.14627925 -12.02248877 0 0 Z " fill="#FFFFFF" transform="translate(785.25,6.6875)"/>
<path d="M0 0 C5.83276148 4.11609589 9.1319056 9.17020444 12.3359375 15.4609375 C12.66324964 16.01473188 12.99056178 16.56852625 13.32779247 17.13910228 C16.36115802 22.54304597 16.91292323 26.93660238 16.86405945 33.06718445 C16.87241611 34.00406453 16.88077277 34.94094462 16.88938266 35.90621501 C16.912269 39.02973524 16.90675692 42.1525339 16.90112305 45.27612305 C16.9114601 47.52219936 16.92345012 49.76826857 16.93696594 52.014328 C16.9679897 58.10549769 16.97329064 64.19643068 16.97203422 70.2876699 C16.9728655 75.37930582 16.98511448 80.47089061 16.99698383 85.56251079 C17.02591622 98.26748479 17.02888366 110.97228208 17.02092639 123.67726866 C17.01495005 134.68712453 17.04531391 145.69653436 17.09254911 156.70627906 C17.1407609 168.03275961 17.16205664 179.3589611 17.1572383 190.68557006 C17.15492016 197.03586479 17.16315678 203.38569908 17.19830894 209.7359066 C17.23035704 215.71243114 17.22838182 221.68801491 17.20086479 227.66455269 C17.19642421 229.85057366 17.20378773 232.03665749 17.22420883 234.22258759 C17.36189031 250.03950528 15.55156148 259.74889636 4.6484375 271.8984375 C-4.66714636 280.65765418 -14.50037683 283.872804 -27 283.73046875 C-37.81291987 282.93506206 -47.14791343 277.26319389 -54.546875 269.48046875 C-60.70204094 261.73238298 -63.6333105 253.37237738 -63.97579956 243.54354858 C-64.01709047 242.36046427 -64.05838139 241.17737995 -64.10092354 239.9584446 C-64.13964514 238.66939909 -64.17836674 237.38035358 -64.21826172 236.05224609 C-64.23922401 235.37781047 -64.26018631 234.70337484 -64.28178382 234.00850177 C-64.80483017 216.88142652 -64.81144844 199.75430917 -64.798388 182.62078524 C-64.79579522 178.12962575 -64.7982204 173.63846795 -64.79977417 169.14730835 C-64.80157509 161.62245305 -64.79924377 154.09760768 -64.79443359 146.57275391 C-64.78898307 137.94808714 -64.79076785 129.323444 -64.79626 120.69877779 C-64.80083681 113.20312986 -64.80141994 105.70748892 -64.79882133 98.21184003 C-64.79728494 93.77428576 -64.79699059 89.3367425 -64.80035782 84.899189 C-64.82043033 53.58060653 -64.82043033 53.58060653 -64.34326172 38.35693359 C-64.32129793 37.40914347 -64.29933414 36.46135334 -64.27670479 35.4848423 C-63.73436476 21.57919527 -59.97057897 12.23592264 -49.8515625 2.7109375 C-35.05749113 -9.68955117 -16.3308425 -9.43453365 0 0 Z " fill="#FFFFFF" transform="translate(787.6640625,1316.5390625)"/>
</svg>
